# xmcd
#
# Track frame offsets: 
#        150
#        13807
#        27167
#        41932
#        52417
#        62920
#        74882
#        89610
#        105427
#        115990
#
# Disc length: 1718 seconds
#
# Revision: 0
# Processed by: cddbd v1.4PL0 Copyright (c) Steve Scherf et al.
# Submitted via: ExactAudioCopy v0.90b3
#
DISCID=9a06b40a
DTITLE=George Jones - Together and Apart
DYEAR=1900
DGENRE=Country
TTITLE0=Golden Ring (George Jones and Tammy Wynette)
TTITLE1=D-I-V-O-R-C-E (Tammy Wynette)
TTITLE2=He Stopped Loving Her Today (George Jones)
TTITLE3=They Call It Making Love (Tammy Wynette)
TTITLE4=Her Name Is... (George Jones)
TTITLE5=Till I Get It Right (Tammy Wynette)
TTITLE6=Who's Gonna Fill Their Shoes (George Jones)
TTITLE7=The Wonders You Perform (Tammy Wynette)
TTITLE8=Nothing Ever Hurt Me (Half As Bad) (George Jones)
TTITLE9=Womanhood (Tammy Wynette)
EXTD=
EXTT0=
EXTT1=
EXTT2=
EXTT3=
EXTT4=
EXTT5=
EXTT6=
EXTT7=
EXTT8=
EXTT9=
PLAYORDER=
